<?xml version="1.0" encoding="UTF-8"?>
<svg xmlns="http://www.w3.org/2000/svg" xmlns:xlink="http://www.w3.org/1999/xlink" width="20px" height="18px" viewBox="0 0 20 18" version="1.1">
<g id="surface1">
<path style=" stroke:none;fill-rule:nonzero;fill:rgb(0%,0%,0%);fill-opacity:1;" d="M 13.234375 5.285156 L 18.226562 6.03125 C 18.640625 6.089844 18.984375 6.382812 19.117188 6.789062 C 19.25 7.195312 19.140625 7.640625 18.84375 7.941406 L 15.226562 11.535156 L 16.078125 16.6875 C 16.148438 17.109375 15.980469 17.539062 15.632812 17.789062 C 15.289062 18.039062 14.832031 18.070312 14.460938 17.871094 L 10.003906 15.460938 L 5.546875 17.871094 C 5.171875 18.070312 4.71875 18.039062 4.375 17.789062 C 4.03125 17.539062 3.859375 17.109375 3.929688 16.6875 L 4.785156 11.535156 L 1.164062 7.941406 C 0.867188 7.640625 0.761719 7.195312 0.890625 6.789062 C 1.023438 6.382812 1.367188 6.089844 1.785156 6.03125 L 6.769531 5.285156 L 9.007812 0.632812 C 9.191406 0.246094 9.578125 0 10.003906 0 C 10.429688 0 10.820312 0.246094 11.003906 0.632812 Z M 13.234375 5.285156 "/>
</g>
</svg>
